<svg width="15" height="17" viewBox="0 0 15 17" fill="none" xmlns="http://www.w3.org/2000/svg">
<path id="Vector - 0" fill-rule="evenodd" clip-rule="evenodd" d="M14.8298 11.8724C14.3961 11.1254 13.7515 9.01173 13.7515 6.25109C13.7515 2.79871 10.9528 0 7.5004 0C4.04801 0 1.2493 2.79871 1.2493 6.25109C1.2493 9.01251 0.603878 11.1254 0.170208 11.8724C-0.0552036 12.2589 -0.056843 12.7365 0.165909 13.1246C0.388661 13.5126 0.801836 13.7521 1.2493 13.7524H4.43814C4.73547 15.2073 6.01543 16.2521 7.5004 16.2521C8.98536 16.2521 10.2653 15.2073 10.5627 13.7524H13.7515C14.1988 13.7518 14.6117 13.5122 14.8343 13.1242C15.0569 12.7362 15.0551 12.2588 14.8298 11.8724ZM7.5004 15.0026C6.70588 15.0024 5.99774 14.5015 5.7329 13.7524H9.26789C9.00305 14.5015 8.29492 15.0024 7.5004 15.0026ZM1.2493 12.5022C1.85097 11.4676 2.49952 9.07034 2.49952 6.25109C2.49952 3.48919 4.73849 1.25022 7.5004 1.25022C10.2623 1.25022 12.5013 3.48919 12.5013 6.25109C12.5013 9.06799 13.1483 11.4653 13.7515 12.5022H1.2493Z" fill="#121417"/>
</svg>
